STARTFONT 2.1
FONT -Rad Pro Symbols 8-Regular-R-Regular--8-8-75-75-c-80-iso10646-1
SIZE 8 75 75
FONTBOUNDINGBOX 9 8 0 -2
STARTPROPERTIES 9
FAMILY_NAME "Rad Pro Symbols 8"
WEIGHT_NAME "Regular"
FONT_VERSION "Version 1.0"
COPYRIGHT "(C) 2023-2025 Gissio"
FONT_ASCENT 6
FONT_DESCENT 2
POINT_SIZE 8
X_HEIGHT 4
CAP_HEIGHT 5
ENDPROPERTIES
CHARS 34
STARTCHAR U+0030
ENCODING 48
SWIDTH 1000 0
DWIDTH 9 0
BBX 9 4 0 0
BITMAP
FF00
8180
8180
FF00
ENDCHAR
STARTCHAR U+0031
ENCODING 49
SWIDTH 1000 0
DWIDTH 9 0
BBX 9 4 0 0
BITMAP
FF00
E180
E180
FF00
ENDCHAR
STARTCHAR U+0032
ENCODING 50
SWIDTH 1000 0
DWIDTH 9 0
BBX 9 4 0 0
BITMAP
FF00
F180
F180
FF00
ENDCHAR
STARTCHAR U+0033
ENCODING 51
SWIDTH 1000 0
DWIDTH 9 0
BBX 9 4 0 0
BITMAP
FF00
FD80
FD80
FF00
ENDCHAR
STARTCHAR U+0034
ENCODING 52
SWIDTH 1000 0
DWIDTH 9 0
BBX 9 4 0 0
BITMAP
FF00
FF80
FF80
FF00
ENDCHAR
STARTCHAR U+0035
ENCODING 53
SWIDTH 1000 0
DWIDTH 9 0
BBX 9 6 0 -2
BITMAP
FF00
8180
A180
7700
2000
4000
ENDCHAR
STARTCHAR U+0036
ENCODING 54
SWIDTH 1000 0
DWIDTH 9 0
BBX 9 6 0 -2
BITMAP
FF00
C180
A180
7700
2000
4000
ENDCHAR
STARTCHAR U+0037
ENCODING 55
SWIDTH 1000 0
DWIDTH 9 0
BBX 9 6 0 -2
BITMAP
FF00
D180
A180
7700
2000
4000
ENDCHAR
STARTCHAR U+0038
ENCODING 56
SWIDTH 1000 0
DWIDTH 9 0
BBX 9 6 0 -2
BITMAP
FF00
DD80
AD80
7700
2000
4000
ENDCHAR
STARTCHAR U+0039
ENCODING 57
SWIDTH 1000 0
DWIDTH 9 0
BBX 9 6 0 -2
BITMAP
FF00
DF80
AF80
7700
2000
4000
ENDCHAR
STARTCHAR U+003A
ENCODING 58
SWIDTH 1000 0
DWIDTH 9 0
BBX 7 6 1 -1
BITMAP
38
7C
7C
7C
FE
10
ENDCHAR
STARTCHAR U+003B
ENCODING 59
SWIDTH 1000 0
DWIDTH 9 0
BBX 9 8 0 -2
BITMAP
FF80
E380
C180
C180
C180
8080
F780
FF80
ENDCHAR
STARTCHAR U+003C
ENCODING 60
SWIDTH 1000 0
DWIDTH 9 0
BBX 7 7 1 -1
BITMAP
38
44
44
FE
EE
FE
FE
ENDCHAR
STARTCHAR U+003D
ENCODING 61
SWIDTH 555 0
DWIDTH 5 0
BBX 4 7 0 -2
BITMAP
80
C0
E0
F0
E0
C0
80
ENDCHAR
STARTCHAR U+003E
ENCODING 62
SWIDTH 888 0
DWIDTH 8 0
BBX 7 5 0 -1
BITMAP
02
04
88
50
20
ENDCHAR
STARTCHAR U+0041
ENCODING 65
SWIDTH 1000 0
DWIDTH 9 0
BBX 5 5 2 -1
BITMAP
70
70
20
70
F8
ENDCHAR
STARTCHAR U+0042
ENCODING 66
SWIDTH 1000 0
DWIDTH 9 0
BBX 5 6 2 -1
BITMAP
20
50
70
70
20
D8
ENDCHAR
STARTCHAR U+0043
ENCODING 67
SWIDTH 1000 0
DWIDTH 9 0
BBX 6 7 1 -1
BITMAP
14
38
6C
FC
5C
38
7C
ENDCHAR
STARTCHAR U+0044
ENCODING 68
SWIDTH 1000 0
DWIDTH 9 0
BBX 5 6 2 -1
BITMAP
A8
F8
70
70
70
F8
ENDCHAR
STARTCHAR U+0045
ENCODING 69
SWIDTH 1000 0
DWIDTH 9 0
BBX 7 7 1 -1
BITMAP
10
54
AA
7C
7C
38
7C
ENDCHAR
STARTCHAR U+0046
ENCODING 70
SWIDTH 1000 0
DWIDTH 9 0
BBX 5 7 2 -1
BITMAP
20
70
20
F8
F8
70
F8
ENDCHAR
STARTCHAR U+0049
ENCODING 73
SWIDTH 1000 0
DWIDTH 9 0
BBX 7 7 1 -2
BITMAP
38
44
44
28
44
82
7C
ENDCHAR
STARTCHAR U+004A
ENCODING 74
SWIDTH 1000 0
DWIDTH 9 0
BBX 7 8 1 -2
BITMAP
10
28
54
44
44
6C
92
6C
ENDCHAR
STARTCHAR U+004B
ENCODING 75
SWIDTH 1000 0
DWIDTH 9 0
BBX 8 8 0 -2
BITMAP
15
22
49
81
51
22
41
3E
ENDCHAR
STARTCHAR U+004C
ENCODING 76
SWIDTH 1000 0
DWIDTH 9 0
BBX 7 8 1 -2
BITMAP
54
AA
82
44
44
44
82
7C
ENDCHAR
STARTCHAR U+004D
ENCODING 77
SWIDTH 1000 0
DWIDTH 9 0
BBX 9 8 0 -2
BITMAP
3600
5500
AA80
4100
4100
2200
4100
3E00
ENDCHAR
STARTCHAR U+004E
ENCODING 78
SWIDTH 1000 0
DWIDTH 9 0
BBX 7 8 1 -2
BITMAP
28
44
6C
82
82
44
82
7C
ENDCHAR
STARTCHAR U+0050
ENCODING 80
SWIDTH 1000 0
DWIDTH 9 0
BBX 9 8 0 -2
BITMAP
AA80
5500
AA80
5500
AA80
5500
AA80
5500
ENDCHAR
STARTCHAR U+0051
ENCODING 81
SWIDTH 1000 0
DWIDTH 9 0
BBX 9 8 0 -2
BITMAP
AA80
4100
9C80
5D00
AA80
5D00
BE80
4100
ENDCHAR
STARTCHAR U+0052
ENCODING 82
SWIDTH 1000 0
DWIDTH 9 0
BBX 9 8 0 -2
BITMAP
A280
4900
9480
5D00
9C80
4900
B680
4900
ENDCHAR
STARTCHAR U+0053
ENCODING 83
SWIDTH 1000 0
DWIDTH 9 0
BBX 9 8 0 -2
BITMAP
AA80
5D00
B680
7E00
AE80
5D00
BE80
4100
ENDCHAR
STARTCHAR U+0054
ENCODING 84
SWIDTH 1000 0
DWIDTH 9 0
BBX 9 8 0 -2
BITMAP
8080
2A00
BE80
5D00
9C80
5D00
BE80
4100
ENDCHAR
STARTCHAR U+0055
ENCODING 85
SWIDTH 1000 0
DWIDTH 9 0
BBX 9 8 0 -2
BITMAP
8880
2A00
5500
3E00
BE80
5D00
BE80
4100
ENDCHAR
STARTCHAR U+0056
ENCODING 86
SWIDTH 1000 0
DWIDTH 9 0
BBX 9 8 0 -2
BITMAP
AA80
5D00
8880
3E00
BE80
5D00
BE80
4100
ENDCHAR
ENDFONT
